# xmcd
#
# Track frame offsets: 
#        150
#        14851
#        28024
#        32627
#        46540
#        56797
#        67047
#        78644
#        88303
#        91498
#        105059
#        107479
#        111968
#        118714
#        123008
#        127362
#        128965
#        139578
#        150574
#        163326
#        174246
#        185927
#        199132
#        209376
#        219621
#        229162
#        242152
#        253277
#        263733
#        271565
#        281070
#        292648
#        304002
#        313443
#        324807
#
# Disc length: 4513 seconds
#
# Revision: 0
# Processed by: cddbd v1.5.2PL0 Copyright (c) Steve Scherf et al.
# Submitted via: ExactAudioCopy v0.95b3
#
DISCID=08119f23
DTITLE=The Beatles  - Revolver Deluxe 07 Purple Chick - Disc 3 - sessi
DTITLE=ons  FLAC
DYEAR=1900
DGENRE=
TTITLE0=Tomorrow Never Knows - take 1
TTITLE1=Got To Get You Into My Life - take 5
TTITLE2=Paperback Writer - take 1
TTITLE3=Paperback Writer - take 2
TTITLE4=And Your Bird Can Sing - take 2 stereo
TTITLE5=And Your Bird Can Sing - take 2+overdubs
TTITLE6=Taxman - take 11
TTITLE7=Eleanor Rigby - strings
TTITLE8=I'm Only Sleeping - rehearsal
TTITLE9=I'm Only Sleeping - take 1
TTITLE10=For No One - rehearsal
TTITLE11=For No One - take 1
TTITLE12=For No One - take 2
TTITLE13=For No One - take a
TTITLE14=For No One - take b
TTITLE15=For No One - take c
TTITLE16=For No One - take 10
TTITLE17=For No One - take 14
TTITLE18=Yellow Submarine - take 5
TTITLE19=Here, There and Everywhere - take 7(+14)
TTITLE20=Here, There and Everywhere - take 14
TTITLE21=Got To Get You Into My Life - take 5
TTITLE22=And Your Bird Can Sing - take 2
TTITLE23=And Your Bird Can Sing - take 2+overdubs
TTITLE24=Tomorrow Never Knows - take 1
TTITLE25=Tomorrow Never Knows - take 3
TTITLE26=For No One - take 10a
TTITLE27=For No One - take 10b
TTITLE28=For No One - take 10c
TTITLE29=For No One - take 14
TTITLE30=Here, There and Everywhere - take 14a
TTITLE31=Here, There and Everywhere - take 14b
TTITLE32=Here, There and Everywhere - take 14c
TTITLE33=Here, There and Everywhere - take 14d
TTITLE34=Rain - take 7
EXTD=
EXTT0=
EXTT1=
EXTT2=
EXTT3=
EXTT4=
EXTT5=
EXTT6=
EXTT7=
EXTT8=
EXTT9=
EXTT10=
EXTT11=
EXTT12=
EXTT13=
EXTT14=
EXTT15=
EXTT16=
EXTT17=
EXTT18=
EXTT19=
EXTT20=
EXTT21=
EXTT22=
EXTT23=
EXTT24=
EXTT25=
EXTT26=
EXTT27=
EXTT28=
EXTT29=
EXTT30=
EXTT31=
EXTT32=
EXTT33=
EXTT34=
PLAYORDER=
